<svg width="32" height="32" viewBox="0 0 32 32" fill="none" xmlns="http://www.w3.org/2000/svg">
<path d="M32 16C32 24.8366 24.8366 32 16 32C7.16344 32 0 24.8366 0 16C0 7.16344 7.16344 0 16 0C24.8366 0 32 7.16344 32 16Z" fill="white"/>
<path d="M16 7.66663C13.7025 7.66663 11.8333 9.53579 11.8333 11.8333V14.3333H11C10.558 14.3333 10.1341 14.5089 9.82149 14.8214C9.50893 15.134 9.33334 15.5579 9.33334 16V22.6666C9.33334 23.1087 9.50893 23.5326 9.82149 23.8451C10.1341 24.1577 10.558 24.3333 11 24.3333H21C21.442 24.3333 21.866 24.1577 22.1785 23.8451C22.4911 23.5326 22.6667 23.1087 22.6667 22.6666V16C22.6667 15.5579 22.4911 15.134 22.1785 14.8214C21.866 14.5089 21.442 14.3333 21 14.3333H20.1667V11.8333C20.1667 9.53579 18.2975 7.66663 16 7.66663ZM13.5 11.8333C13.5 10.455 14.6217 9.33329 16 9.33329C17.3783 9.33329 18.5 10.455 18.5 11.8333V14.3333H13.5V11.8333ZM16.8333 20.7691V22.6666H15.1667V20.7691C14.8753 20.6023 14.6414 20.3511 14.4957 20.0486C14.35 19.7461 14.2994 19.4066 14.3506 19.0748C14.4017 18.743 14.5523 18.4344 14.7823 18.1899C15.0123 17.9454 15.3111 17.7763 15.6392 17.705C15.8829 17.6511 16.1355 17.6526 16.3785 17.7094C16.6216 17.7661 16.8487 17.8767 17.0433 18.033C17.2379 18.1893 17.3949 18.3873 17.5028 18.6123C17.6107 18.8373 17.6667 19.0837 17.6667 19.3333C17.6662 19.6247 17.5889 19.9109 17.4426 20.163C17.2963 20.4151 17.0862 20.6241 16.8333 20.7691V20.7691Z" fill="#E8E8E8"/>
</svg>
