<svg width="32" height="32" viewBox="0 0 32 32" fill="none" xmlns="http://www.w3.org/2000/svg">
<path d="M32 16C32 24.8366 24.8366 32 16 32C7.16344 32 0 24.8366 0 16C0 7.16344 7.16344 0 16 0C24.8366 0 32 7.16344 32 16Z" fill="white"/>
<path d="M4 16C4 9.37258 9.37258 4 16 4V4C22.6274 4 28 9.37258 28 16V16C28 22.6274 22.6274 28 16 28V28C9.37258 28 4 22.6274 4 16V16Z" fill="white"/>
<path fill-rule="evenodd" clip-rule="evenodd" d="M14.4158 21.6727C14.2229 21.8561 13.92 21.8561 13.727 21.6727L8.76289 16.9557C8.348 16.5615 8.348 15.9001 8.76289 15.5059L9.01116 15.2699C9.39715 14.9032 10.0028 14.9032 10.3888 15.2699L14.0714 18.7692L18.6857 14.3846L22.6112 10.6546C22.9972 10.2878 23.6028 10.2878 23.9888 10.6545L24.2371 10.8905C24.652 11.2847 24.652 11.9461 24.2371 12.3403L14.4158 21.6727Z" fill="#F69650"/>
</svg>
