<svg width="223" height="14" viewBox="0 0 223 14" fill="none" xmlns="http://www.w3.org/2000/svg">
<path d="M0 6C0 4.89543 0.69851 4 1.56017 4H186.44C187.301 4 188 4.89543 188 6C188 7.10457 187.301 8 186.44 8H1.56017C0.69851 8 0 7.10457 0 6Z" fill="#F69650"/>
<path d="M0 6C0 4.89543 0.278985 4 0.62313 4H74.464C74.8082 4 75.0871 4.89543 75.0871 6C75.0871 7.10457 74.8082 8 74.464 8H0.62313C0.278985 8 0 7.10457 0 6Z" fill="#D6600B"/>
<path d="M200.832 11.18C200.616 11.18 200.392 11.164 200.16 11.132C199.936 11.108 199.72 11.072 199.512 11.024C199.312 10.984 199.128 10.94 198.96 10.892C198.792 10.836 198.664 10.784 198.576 10.736L198.864 9.5C199.032 9.58 199.276 9.672 199.596 9.776C199.916 9.872 200.312 9.92 200.784 9.92C201.416 9.92 201.872 9.8 202.152 9.56C202.432 9.312 202.572 8.984 202.572 8.576C202.572 8.312 202.516 8.092 202.404 7.916C202.3 7.74 202.152 7.6 201.96 7.496C201.776 7.384 201.56 7.308 201.312 7.268C201.072 7.22 200.816 7.196 200.544 7.196H200.052V6.02H200.652C200.836 6.02 201.02 6.004 201.204 5.972C201.396 5.932 201.568 5.868 201.72 5.78C201.872 5.684 201.996 5.56 202.092 5.408C202.188 5.256 202.236 5.06 202.236 4.82C202.236 4.628 202.2 4.464 202.128 4.328C202.056 4.192 201.96 4.08 201.84 3.992C201.728 3.904 201.596 3.84 201.444 3.8C201.292 3.76 201.132 3.74 200.964 3.74C200.604 3.74 200.284 3.796 200.004 3.908C199.724 4.012 199.476 4.132 199.26 4.268L198.732 3.188C198.844 3.116 198.98 3.04 199.14 2.96C199.3 2.88 199.476 2.804 199.668 2.732C199.868 2.66 200.08 2.604 200.304 2.564C200.528 2.516 200.764 2.492 201.012 2.492C201.476 2.492 201.876 2.548 202.212 2.66C202.548 2.772 202.824 2.932 203.04 3.14C203.264 3.34 203.428 3.58 203.532 3.86C203.644 4.132 203.7 4.432 203.7 4.76C203.7 5.144 203.592 5.488 203.376 5.792C203.168 6.096 202.896 6.328 202.56 6.488C202.992 6.64 203.348 6.892 203.628 7.244C203.916 7.596 204.06 8.048 204.06 8.6C204.06 8.968 203.996 9.312 203.868 9.632C203.74 9.944 203.544 10.216 203.28 10.448C203.016 10.672 202.68 10.852 202.272 10.988C201.872 11.116 201.392 11.18 200.832 11.18ZM208.864 4.472C208.672 4.704 208.472 4.952 208.264 5.216C208.064 5.48 207.868 5.756 207.676 6.044C207.484 6.332 207.3 6.628 207.124 6.932C206.948 7.228 206.788 7.524 206.644 7.82H208.864V4.472ZM210.28 2.684V7.82H211.216V9.008H210.28V11H208.864V9.008H205.216V7.976C205.376 7.624 205.588 7.22 205.852 6.764C206.124 6.308 206.424 5.84 206.752 5.36C207.08 4.88 207.428 4.408 207.796 3.944C208.164 3.48 208.532 3.06 208.9 2.684H210.28ZM216.237 4.772C216.237 5.5 216.049 6.06 215.673 6.452C215.305 6.844 214.821 7.04 214.221 7.04C213.925 7.04 213.653 6.992 213.405 6.896C213.157 6.792 212.945 6.644 212.769 6.452C212.593 6.26 212.453 6.024 212.349 5.744C212.253 5.456 212.205 5.132 212.205 4.772C212.205 4.036 212.389 3.476 212.757 3.092C213.133 2.7 213.621 2.504 214.221 2.504C214.821 2.504 215.305 2.7 215.673 3.092C216.049 3.476 216.237 4.036 216.237 4.772ZM215.097 4.772C215.097 4.348 215.017 4.032 214.857 3.824C214.705 3.608 214.493 3.5 214.221 3.5C213.949 3.5 213.737 3.608 213.585 3.824C213.433 4.032 213.357 4.348 213.357 4.772C213.357 5.196 213.433 5.516 213.585 5.732C213.737 5.94 213.949 6.044 214.221 6.044C214.493 6.044 214.705 5.94 214.857 5.732C215.017 5.516 215.097 5.196 215.097 4.772ZM218.673 2.684H220.053L215.361 11H213.981L218.673 2.684ZM221.841 8.924C221.841 9.652 221.653 10.212 221.277 10.604C220.909 10.996 220.425 11.192 219.825 11.192C219.529 11.192 219.257 11.14 219.009 11.036C218.761 10.94 218.549 10.796 218.373 10.604C218.197 10.412 218.057 10.176 217.953 9.896C217.857 9.608 217.809 9.284 217.809 8.924C217.809 8.188 217.993 7.628 218.361 7.244C218.737 6.852 219.225 6.656 219.825 6.656C220.425 6.656 220.909 6.852 221.277 7.244C221.653 7.628 221.841 8.188 221.841 8.924ZM220.701 8.924C220.701 8.5 220.621 8.184 220.461 7.976C220.309 7.76 220.097 7.652 219.825 7.652C219.553 7.652 219.341 7.76 219.189 7.976C219.037 8.184 218.961 8.5 218.961 8.924C218.961 9.348 219.037 9.668 219.189 9.884C219.341 10.092 219.553 10.196 219.825 10.196C220.097 10.196 220.309 10.092 220.461 9.884C220.621 9.668 220.701 9.348 220.701 8.924Z" fill="white"/>
</svg>
